<?xml version="1.0" encoding="UTF-8"?>
<svg version="1.1" xmlns="http://www.w3.org/2000/svg" width="512" height="512">
<path d="M0 0 C2.53927817 0.02165486 5.07579213 0.0000038 7.61499023 -0.02539062 C9.23804332 -0.02275075 10.86109469 -0.01763283 12.48413086 -0.00976562 C13.23830795 -0.01786255 13.99248505 -0.02595947 14.76951599 -0.03430176 C20.0546315 0.06022563 20.54770978 0.48740705 24.58178711 4.52148438 C24.58178711 16.40148438 24.58178711 28.28148438 24.58178711 40.52148438 C135.46178711 40.52148438 246.34178711 40.52148438 360.58178711 40.52148438 C360.58178711 28.64148437 360.58178711 16.76148437 360.58178711 4.52148438 C364.61586444 0.48740705 365.10894272 0.06022563 370.39405823 -0.03430176 C371.14823532 -0.02620483 371.90241241 -0.01810791 372.67944336 -0.00976562 C373.46894882 -0.01359253 374.25845428 -0.01741943 375.07188416 -0.0213623 C376.7437365 -0.02408155 378.41563139 -0.01671932 380.08740234 0 C382.61192299 0.02121243 385.13353257 0.0003058 387.65795898 -0.02539062 C401.04250428 -0.04949364 411.56676331 1.96082839 421.58178711 11.52148438 C430.54432675 20.9099665 433.19405962 31.04777108 433.08972168 43.77978516 C433.09908162 45.55858661 433.09908162 45.55858661 433.10863066 47.37332344 C433.12173925 50.63389726 433.11713852 53.89386592 433.10468578 57.15442371 C433.09558323 60.68279397 433.10963064 64.21108645 433.12060547 67.73944092 C433.13834012 74.63920611 433.13457338 81.53879671 433.12295491 88.43856859 C433.11390087 94.04892433 433.11270508 99.65923133 433.11705017 105.26959229 C433.1176631 106.0697807 433.11827604 106.86996912 433.11890754 107.69440567 C433.12018651 109.32025577 433.12148337 110.94610585 433.12279791 112.57195592 C433.13418889 127.79766132 433.1211133 143.02327021 433.09959644 158.24895978 C433.08172679 171.29753192 433.08483132 184.34596168 433.10327148 197.39453125 C433.12470442 212.56782052 433.1330904 227.74102532 433.12082243 242.91432762 C433.11954831 244.53401056 433.11829082 246.1536935 433.11705017 247.77337646 C433.11612452 248.96857538 433.11612452 248.96857538 433.11518016 250.18791974 C433.11173453 255.78791855 433.1175386 261.38786353 433.12696838 266.987854 C433.13821673 273.81758884 433.13508901 280.64713991 433.11384541 287.47685385 C433.10337289 290.95780385 433.09914757 294.43844809 433.11244202 297.91939545 C433.1234075 301.70096104 433.10961976 305.48167212 433.08972168 309.26318359 C433.10310601 310.89642924 433.10310601 310.89642924 433.11676073 312.56266975 C433.00051285 323.98912704 429.50385243 333.22292486 421.58178711 341.52148438 C409.35928045 353.18947277 396.3438868 353.0621002 380.39428711 352.77148438 C378.46917551 352.75138554 376.54404362 352.73314077 374.61889648 352.71679688 C369.93935207 352.67307652 365.26079738 352.60423675 360.58178711 352.52148438 C360.58178711 349.88148438 360.58178711 347.24148438 360.58178711 344.52148438 C355.30178711 344.52148438 350.02178711 344.52148438 344.58178711 344.52148438 C344.67081299 346.67188232 344.75983887 348.82228027 344.8515625 351.0378418 C345.13766615 358.27253249 345.32271864 365.50752757 345.46259403 372.74643993 C345.55006156 377.12176513 345.6678394 381.49114015 345.86425781 385.86303711 C346.92388521 410.10381866 344.36000849 426.4618625 329.89328003 446.2928772 C326.91354056 450.45486625 324.19479843 454.76147139 321.50019741 459.11195087 C318.79381129 463.41547229 318.79381129 463.41547229 316.58178711 464.52148438 C310.89750338 465.08059425 310.89750338 465.08059425 308.58178711 464.52148438 C304.7212316 461.07851044 302.15794752 457.5083119 299.58569336 453.04101562 C299.22966537 452.4281218 298.87363739 451.81522797 298.50682068 451.1837616 C297.37858109 449.23800052 296.2611662 447.28628419 295.14428711 445.33398438 C294.028532 443.40102914 292.91057342 441.46936033 291.79246521 439.5377655 C290.42892012 437.1784738 289.0667086 434.81902087 287.74139404 432.43798828 C286.58577408 430.44920204 286.58577408 430.44920204 285.00958252 428.46923828 C279.25461253 420.46369401 279.81113999 412.33548714 279.99584961 402.91992188 C280.00706031 401.2302909 280.01559163 399.54064023 280.02157593 397.85098267 C280.04432735 393.43480205 280.10312874 389.01983273 280.1697998 384.60412598 C280.24239975 379.28947476 280.26959381 373.97441523 280.30451965 368.65940857 C280.36241997 360.61259513 280.47748198 352.56843175 280.58178711 344.52148438 C267.38178711 344.52148438 254.18178711 344.52148438 240.58178711 344.52148438 C240.58178711 348.48148437 240.58178711 352.44148438 240.58178711 356.52148438 C239.50481124 359.690369 238.51658895 362.17532553 236.96850586 365.06054688 C236.59828812 365.79348969 236.22807037 366.5264325 235.84663391 367.28158569 C235.07015821 368.80792989 234.28230445 370.32853722 233.48339844 371.84326172 C232.25946567 374.16511608 231.07157875 376.50284434 229.88842773 378.84570312 C229.1254558 380.33501171 228.36055121 381.82333214 227.59350586 383.31054688 C227.23713547 384.00628815 226.88076508 384.70202942 226.51359558 385.41885376 C224.78355797 388.6834555 223.7131932 390.43388032 220.58178711 392.52148438 C218.1219635 392.78890991 218.1219635 392.78890991 215.1640625 392.81201172 C214.05603775 392.82477142 212.948013 392.83753113 211.80641174 392.85067749 C210.01106239 392.85401596 210.01106239 392.85401596 208.17944336 392.85742188 C206.95019638 392.86407867 205.7209494 392.87073547 204.45445251 392.87759399 C201.85278828 392.8877268 199.25109801 392.89241082 196.64941406 392.89208984 C192.66367602 392.89184657 188.67867161 392.93278062 184.69311523 392.97070312 C182.16772841 392.97657097 179.6423363 392.98054058 177.11694336 392.98242188 C175.92206802 392.99679291 174.72719269 393.01116394 173.49610901 393.02597046 C172.3849321 393.0198172 171.27375519 393.01366394 170.12890625 393.00732422 C169.15200333 393.01017426 168.1751004 393.01302429 167.16859436 393.01596069 C163.8278578 392.37736842 162.70779702 391.12247944 160.58178711 388.52148438 C159.1950445 386.21282908 157.91768759 383.94247499 156.69116211 381.55273438 C156.34168518 380.87658081 155.99220825 380.20042725 155.63214111 379.50378418 C154.89832721 378.07381526 154.16906136 376.64150435 153.4440918 375.20703125 C152.34329036 373.04408689 151.20953991 370.90070644 150.07397461 368.75585938 C145.73149973 360.32247771 143.63411417 354.2427745 144.58178711 344.52148438 C139.30178711 344.52148438 134.02178711 344.52148438 128.58178711 344.52148438 C128.59066956 345.70419418 128.599552 346.88690399 128.60870361 348.10545349 C128.6899247 359.27215012 128.74981749 370.43878652 128.7890358 381.60571194 C128.80987643 387.34623501 128.83812999 393.08651887 128.88354492 398.8269043 C128.92712788 404.3706655 128.95095071 409.91419717 128.96129608 415.45811653 C128.96866508 417.56914951 128.98305495 419.68017047 129.00470734 421.79110527 C129.03390649 424.75676116 129.03773618 427.72147848 129.03588867 430.68725586 C129.05026978 431.55256927 129.06465088 432.41788269 129.07946777 433.30941772 C129.01684878 442.6491099 124.99357806 450.78616269 118.58178711 457.52148438 C112.66791793 462.18161329 106.43136632 464.75923196 98.84039307 464.79563904 C97.71910004 464.80561417 96.59780701 464.81558929 95.4425354 464.8258667 C94.22681854 464.82653137 93.01110168 464.82719604 91.75854492 464.82788086 C90.46675323 464.83620438 89.17496155 464.84452789 87.84402466 464.85310364 C84.31075455 464.87498343 80.77757095 464.88383888 77.24424076 464.88893008 C75.03265685 464.89258185 72.82109531 464.89882619 70.60951996 464.90593147 C62.88216667 464.9304048 55.15488029 464.94347296 47.42749023 464.94702148 C40.24397892 464.95065357 33.06089567 464.98053055 25.87751508 465.02242607 C19.694684 465.05721161 13.51199422 465.07257136 7.32906604 465.07326752 C3.64318122 465.07405763 -0.04226723 465.08267224 -3.72805023 465.11126518 C-7.8448008 465.14248894 -11.96054241 465.13334697 -16.07739258 465.12084961 C-17.88882248 465.14310104 -17.88882248 465.14310104 -19.73684692 465.165802 C-27.27467565 465.10082014 -33.18273782 463.95019149 -39.41821289 459.52148438 C-44.98696328 453.64168519 -47.70016983 448.00456969 -47.85571289 439.83398438 C-47.89567383 438.69574219 -47.93563477 437.5575 -47.97680664 436.38476562 C-46.64513998 427.17484724 -41.26472974 420.63438157 -34.78222656 414.31787109 C-34.0304715 413.56538589 -33.27871643 412.8129007 -32.50418091 412.03761292 C-30.0431905 409.5800758 -27.56503467 407.14067874 -25.08618164 404.70117188 C-23.3658765 402.99020277 -21.64667984 401.27811848 -19.92854309 399.56497192 C-15.42355522 395.078991 -10.90375165 390.60823549 -6.38061523 386.14056396 C-1.75969348 381.57096998 2.84694544 376.98702637 7.45483398 372.40429688 C16.48330397 363.42930352 25.52877331 354.47172004 34.58178711 345.52148438 C26.00178711 345.19148438 17.42178711 344.86148437 8.58178711 344.52148438 C8.58178711 347.16148437 8.58178711 349.80148437 8.58178711 352.52148438 C4.64454641 352.63935226 0.7077695 352.70928612 -3.23071289 352.77148438 C-4.33092773 352.805 -5.43114258 352.83851563 -6.56469727 352.87304688 C-18.45113493 353.01329983 -27.76650931 349.7806721 -36.41821289 341.52148438 C-45.38075254 332.13300225 -48.0304854 321.99519767 -47.92614746 309.26318359 C-47.93238742 308.07731596 -47.93862739 306.89144833 -47.94505644 305.66964531 C-47.95816503 302.40907149 -47.9535643 299.14910283 -47.94111156 295.88854504 C-47.93200901 292.36017478 -47.94605642 288.8318823 -47.95703125 285.30352783 C-47.9747659 278.40376264 -47.97099916 271.50417204 -47.95938069 264.60440016 C-47.95032665 258.99404442 -47.94913086 253.38373742 -47.95347595 247.77337646 C-47.95408888 246.97318805 -47.95470182 246.17299963 -47.95533332 245.34856308 C-47.9566123 243.72271298 -47.95790915 242.0968629 -47.95922369 240.47101283 C-47.97061468 225.24530743 -47.95753908 210.01969854 -47.93602222 194.79400897 C-47.91815257 181.74543683 -47.9212571 168.69700707 -47.93969727 155.6484375 C-47.9611302 140.47514823 -47.96951618 125.30194343 -47.95724821 110.12864113 C-47.95597409 108.50895819 -47.9547166 106.88927525 -47.95347595 105.26959229 C-47.95285885 104.47279301 -47.95224175 103.67599373 -47.95160595 102.85504901 C-47.94816031 97.2550502 -47.95396439 91.65510522 -47.96339417 86.05511475 C-47.97464251 79.22537991 -47.9715148 72.39582884 -47.95027119 65.5661149 C-47.93979867 62.0851649 -47.93557335 58.60452066 -47.9488678 55.1235733 C-47.95983328 51.34200771 -47.94604554 47.56129663 -47.92614746 43.77978516 C-47.93507035 42.69095472 -47.94399323 41.60212429 -47.95318651 40.480299 C-47.83693863 29.05384171 -44.34027821 19.82004389 -36.41821289 11.52148438 C-25.65558363 1.24714075 -14.25042267 -0.14505667 0 0 Z M61.29663086 391.67382812 C59.9218457 393.05248047 59.9218457 393.05248047 58.51928711 394.45898438 C57.60018555 395.37550781 56.68108398 396.29203125 55.73413086 397.23632812 C53.46751438 399.11960984 53.46751438 399.11960984 53.58178711 400.52148438 C57.21178711 400.52148438 60.84178711 400.52148438 64.58178711 400.52148438 C64.58178711 396.89148438 64.58178711 393.26148438 64.58178711 389.52148438 C63.17991258 389.40721165 63.17991258 389.40721165 61.29663086 391.67382812 Z " fill="#5389FE" transform="translate(63.418212890625,23.478515625)"/>
<path d="M0 0 C2.53927817 0.02165486 5.07579213 0.0000038 7.61499023 -0.02539062 C9.23804332 -0.02275075 10.86109469 -0.01763283 12.48413086 -0.00976562 C13.23830795 -0.01786255 13.99248505 -0.02595947 14.76951599 -0.03430176 C20.0546315 0.06022563 20.54770978 0.48740705 24.58178711 4.52148438 C24.58178711 16.40148438 24.58178711 28.28148438 24.58178711 40.52148438 C135.46178711 40.52148438 246.34178711 40.52148438 360.58178711 40.52148438 C360.58178711 28.64148437 360.58178711 16.76148437 360.58178711 4.52148438 C364.61586444 0.48740705 365.10894272 0.06022563 370.39405823 -0.03430176 C371.14823532 -0.02620483 371.90241241 -0.01810791 372.67944336 -0.00976562 C373.46894882 -0.01359253 374.25845428 -0.01741943 375.07188416 -0.0213623 C376.7437365 -0.02408155 378.41563139 -0.01671932 380.08740234 0 C382.61192299 0.02121243 385.13353257 0.0003058 387.65795898 -0.02539062 C401.04250428 -0.04949364 411.56676331 1.96082839 421.58178711 11.52148438 C430.54432675 20.9099665 433.19405962 31.04777108 433.08972168 43.77978516 C433.09908162 45.55858661 433.09908162 45.55858661 433.10863066 47.37332344 C433.12173925 50.63389726 433.11713852 53.89386592 433.10468578 57.15442371 C433.09558323 60.68279397 433.10963064 64.21108645 433.12060547 67.73944092 C433.13834012 74.63920611 433.13457338 81.53879671 433.12295491 88.43856859 C433.11390087 94.04892433 433.11270508 99.65923133 433.11705017 105.26959229 C433.1176631 106.0697807 433.11827604 106.86996912 433.11890754 107.69440567 C433.12018651 109.32025577 433.12148337 110.94610585 433.12279791 112.57195592 C433.13418889 127.79766132 433.1211133 143.02327021 433.09959644 158.24895978 C433.08172679 171.29753192 433.08483132 184.34596168 433.10327148 197.39453125 C433.12470442 212.56782052 433.1330904 227.74102532 433.12082243 242.91432762 C433.11954831 244.53401056 433.11829082 246.1536935 433.11705017 247.77337646 C433.11612452 248.96857538 433.11612452 248.96857538 433.11518016 250.18791974 C433.11173453 255.78791855 433.1175386 261.38786353 433.12696838 266.987854 C433.13821673 273.81758884 433.13508901 280.64713991 433.11384541 287.47685385 C433.10337289 290.95780385 433.09914757 294.43844809 433.11244202 297.91939545 C433.1234075 301.70096104 433.10961976 305.48167212 433.08972168 309.26318359 C433.10310601 310.89642924 433.10310601 310.89642924 433.11676073 312.56266975 C433.00051285 323.98912704 429.50385243 333.22292486 421.58178711 341.52148438 C409.35928045 353.18947277 396.3438868 353.0621002 380.39428711 352.77148438 C378.46917551 352.75138554 376.54404362 352.73314077 374.61889648 352.71679688 C369.93935207 352.67307652 365.26079738 352.60423675 360.58178711 352.52148438 C360.58178711 347.24148438 360.58178711 341.96148437 360.58178711 336.52148438 C363.07612305 336.48410156 365.57045898 336.44671875 368.14038086 336.40820312 C370.58309192 336.36185874 373.02565752 336.31067239 375.46826172 336.2590332 C377.15274047 336.22598524 378.83732461 336.19789207 380.52197266 336.17504883 C395.19857289 336.42497221 395.19857289 336.42497221 408.14038086 330.47070312 C413.94949645 323.47802553 416.11002349 318.429176 415.88647461 309.26367188 C415.07402322 301.95160937 411.17072989 297.66165724 405.77709961 292.96679688 C400.82429269 289.70605211 395.95753281 289.26878506 390.13647461 289.21289062 C388.71589722 289.18775159 387.2953244 289.1623533 385.87475586 289.13671875 C383.65845732 289.10791327 381.44223746 289.08386177 379.22583008 289.06518555 C377.07065872 289.04352434 374.91634756 289.00411589 372.76147461 288.96289062 C371.47998535 288.94943604 370.19849609 288.93598145 368.87817383 288.92211914 C365.40405536 288.49988329 363.99656671 288.00530986 361.58178711 285.52148438 C360.25475183 281.54037853 360.44764436 277.73099306 360.46153259 273.58088684 C360.46067657 272.65767639 360.45982056 271.73446594 360.4589386 270.78327942 C360.45727794 267.66710506 360.46281593 264.55098394 360.46826172 261.43481445 C360.46856791 259.17166743 360.4684348 256.90852032 360.46789646 254.64537334 C360.46767019 248.57082259 360.47347674 242.49629142 360.4805069 236.4217453 C360.4861911 230.72692298 360.48646943 225.03210548 360.48718262 219.33728027 C360.49243526 202.66951237 360.50639634 186.00174813 360.51928711 169.33398438 C360.53991211 132.10585937 360.56053711 94.87773438 360.58178711 56.52148438 C249.70178711 56.52148438 138.82178711 56.52148438 24.58178711 56.52148438 C24.70060844 130.67325029 24.70060844 130.67325029 24.85205078 204.82495117 C24.86560059 219.14807129 24.86560059 219.14807129 24.86811829 225.84773254 C24.87091965 230.53922254 24.88218751 235.23061129 24.89851379 239.92207336 C24.91904676 245.90129062 24.9252688 251.88036001 24.92100394 257.85960925 C24.92189613 260.05712924 24.92787115 262.25465426 24.9394325 264.45214403 C24.95430021 267.41507722 24.9507773 270.37743202 24.94255066 273.34037781 C24.95128865 274.20491986 24.96002665 275.06946192 24.96902943 275.96020222 C24.93427567 280.60045002 24.69120107 283.80748485 21.58178711 287.52148438 C18.07833712 288.68930104 15.26610817 288.66477656 11.57006836 288.69726562 C10.15794433 288.72047933 8.74583493 288.74459728 7.33374023 288.76953125 C5.11985695 288.80449374 2.90650729 288.83390985 0.69238281 288.84741211 C-12.46367352 288.93520419 -12.46367352 288.93520419 -23.66040039 295.48632812 C-24.19922852 296.13730469 -24.73805664 296.78828125 -25.29321289 297.45898438 C-25.84750977 298.10738281 -26.40180664 298.75578125 -26.97290039 299.42382812 C-30.91990092 305.15231268 -31.1419243 310.76684451 -30.41821289 317.52148438 C-28.62857942 324.68001826 -24.48190559 329.4451472 -18.41821289 333.52148438 C-14.88779556 335.15214741 -11.99457028 335.79950692 -8.11743164 335.93554688 C-7.1409668 335.97421875 -6.16450195 336.01289063 -5.15844727 336.05273438 C-4.15104492 336.08367187 -3.14364258 336.11460937 -2.10571289 336.14648438 C-1.07897461 336.18515625 -0.05223633 336.22382813 1.00561523 336.26367188 C3.5307202 336.35762927 6.05622855 336.44063246 8.58178711 336.52148438 C8.58178711 341.80148437 8.58178711 347.08148438 8.58178711 352.52148438 C4.64352521 352.63046011 0.70834472 352.70927704 -3.23071289 352.77148438 C-4.33092773 352.805 -5.43114258 352.83851563 -6.56469727 352.87304688 C-18.45113493 353.01329983 -27.76650931 349.7806721 -36.41821289 341.52148438 C-45.38075254 332.13300225 -48.0304854 321.99519767 -47.92614746 309.26318359 C-47.93238742 308.07731596 -47.93862739 306.89144833 -47.94505644 305.66964531 C-47.95816503 302.40907149 -47.9535643 299.14910283 -47.94111156 295.88854504 C-47.93200901 292.36017478 -47.94605642 288.8318823 -47.95703125 285.30352783 C-47.9747659 278.40376264 -47.97099916 271.50417204 -47.95938069 264.60440016 C-47.95032665 258.99404442 -47.94913086 253.38373742 -47.95347595 247.77337646 C-47.95408888 246.97318805 -47.95470182 246.17299963 -47.95533332 245.34856308 C-47.9566123 243.72271298 -47.95790915 242.0968629 -47.95922369 240.47101283 C-47.97061468 225.24530743 -47.95753908 210.01969854 -47.93602222 194.79400897 C-47.91815257 181.74543683 -47.9212571 168.69700707 -47.93969727 155.6484375 C-47.9611302 140.47514823 -47.96951618 125.30194343 -47.95724821 110.12864113 C-47.95597409 108.50895819 -47.9547166 106.88927525 -47.95347595 105.26959229 C-47.95285885 104.47279301 -47.95224175 103.67599373 -47.95160595 102.85504901 C-47.94816031 97.2550502 -47.95396439 91.65510522 -47.96339417 86.05511475 C-47.97464251 79.22537991 -47.9715148 72.39582884 -47.95027119 65.5661149 C-47.93979867 62.0851649 -47.93557335 58.60452066 -47.9488678 55.1235733 C-47.95983328 51.34200771 -47.94604554 47.56129663 -47.92614746 43.77978516 C-47.93507035 42.69095472 -47.94399323 41.60212429 -47.95318651 40.480299 C-47.83693863 29.05384171 -44.34027821 19.82004389 -36.41821289 11.52148438 C-25.65558363 1.24714075 -14.25042267 -0.14505667 0 0 Z " fill="#000000" transform="translate(63.418212890625,23.478515625)"/>
<path d="M0 0 C0.80953125 0.65613281 1.6190625 1.31226563 2.453125 1.98828125 C3.15953125 2.53097656 3.8659375 3.07367188 4.59375 3.6328125 C19.36013477 15.57963167 29.22179555 35.29600384 31.453125 53.98828125 C32.45714886 77.5711673 27.70279728 100.38244886 12.45581055 118.99731445 C0.21829767 134.39095525 -1.28459844 147.20302722 -0.20941162 166.07226562 C0.19611036 173.33941057 0.26943363 180.60956462 0.23046875 187.88671875 C0.22715546 188.59506615 0.22384216 189.30341354 0.22042847 190.03322601 C0.03163823 208.09197334 -6.07747987 223.99092568 -17.546875 237.98828125 C-20.90178301 240.22488659 -22.04013355 240.24815772 -25.96459961 240.27880859 C-27.07262436 240.2915683 -28.18064911 240.304328 -29.32225037 240.31747437 C-31.11759972 240.32081284 -31.11759972 240.32081284 -32.94921875 240.32421875 C-34.17846573 240.33087555 -35.40771271 240.33753235 -36.67420959 240.34439087 C-39.27587383 240.35452367 -41.8775641 240.3592077 -44.47924805 240.35888672 C-48.46498609 240.35864344 -52.4499905 240.3995775 -56.43554688 240.4375 C-58.9609337 240.44336785 -61.4863258 240.44733745 -64.01171875 240.44921875 C-65.20659409 240.46358978 -66.40146942 240.47796082 -67.6325531 240.49276733 C-68.74373001 240.48661407 -69.85490692 240.48046082 -70.99975586 240.47412109 C-71.97665878 240.47697113 -72.95356171 240.47982117 -73.96006775 240.48275757 C-78.96345381 239.52634463 -81.57839876 234.86887337 -84.40234375 230.91796875 C-93.3243785 217.08600601 -97.19535579 204.64113295 -97.21875 188.09765625 C-97.22070688 187.38853718 -97.22266376 186.67941811 -97.22467995 185.94881058 C-97.22347256 178.69521363 -97.05377387 171.46509198 -96.62772846 164.2239542 C-95.46092201 143.32798595 -99.55190607 130.96939514 -112.57701111 114.55204773 C-121.7837114 102.56958047 -128.18783685 86.18756307 -128.546875 70.98828125 C-128.59714844 69.72628906 -128.64742187 68.46429688 -128.69921875 67.1640625 C-129.28007094 46.79009103 -123.5018455 28.79334526 -110.546875 12.98828125 C-109.73476562 11.93253906 -109.73476562 11.93253906 -108.90625 10.85546875 C-82.87355507 -21.36946915 -31.9667963 -24.81632871 0 0 Z " fill="#010101" transform="translate(304.546875,176.01171875)"/>
<path d="M0 0 C5.75329481 4.406779 9.43100366 10.89237698 11.25 17.8125 C11.55195464 21.66343047 11.54374883 25.5051786 11.54052734 29.36645508 C11.54724457 30.52330307 11.55396179 31.68015106 11.56088257 32.87205505 C11.5798627 36.69209095 11.58378683 40.51195115 11.5859375 44.33203125 C11.59074014 46.31967211 11.59554641 48.30731301 11.60085833 50.29495257 C11.61711854 56.54340907 11.6220295 62.79180798 11.62060547 69.0402832 C11.6194049 75.46827905 11.64049496 81.89593868 11.6720928 88.3238495 C11.69831871 93.85783924 11.70897012 99.3917196 11.70769465 104.92577094 C11.70718681 108.22425494 11.71463349 111.52237425 11.73405075 114.82081032 C11.75370412 118.50427561 11.74787407 122.18688141 11.73583984 125.87036133 C11.74707886 126.9506662 11.75831787 128.03097107 11.76989746 129.14401245 C11.68643122 139.22684511 8.23506678 147.47497573 1.25 154.8125 C-4.66386918 159.47262892 -10.90042079 162.05024758 -18.49139404 162.08665466 C-19.61268707 162.09662979 -20.7339801 162.10660492 -21.88925171 162.11688232 C-23.10496857 162.117547 -24.32068542 162.11821167 -25.57324219 162.11889648 C-27.51092972 162.13138176 -27.51092972 162.13138176 -29.48776245 162.14411926 C-33.02103256 162.16599905 -36.55421616 162.1748545 -40.08754635 162.17994571 C-42.29913026 162.18359747 -44.5106918 162.18984181 -46.72226715 162.1969471 C-54.44962044 162.22142042 -62.17690682 162.23448858 -69.90429688 162.23803711 C-77.08780819 162.2416692 -84.27089144 162.27154618 -91.45427203 162.31344169 C-97.6371031 162.34822723 -103.81979289 162.36358698 -110.00272107 162.36428314 C-113.68860589 162.36507326 -117.37405434 162.37368786 -121.05983734 162.40228081 C-125.17658791 162.43350456 -129.29232952 162.42436259 -133.40917969 162.41186523 C-135.22060959 162.43411667 -135.22060959 162.43411667 -137.06863403 162.45681763 C-144.60646275 162.39183577 -150.51452493 161.24120711 -156.75 156.8125 C-162.31875039 150.93270082 -165.03195694 145.29558532 -165.1875 137.125 C-165.22746094 135.98675781 -165.26742187 134.84851563 -165.30859375 133.67578125 C-163.97966781 124.48481796 -158.61249545 117.9397663 -152.14916992 111.62817383 C-151.40051163 110.87717911 -150.65185333 110.12618439 -149.88050842 109.35243225 C-147.42563688 106.89595813 -144.95349072 104.45772027 -142.48046875 102.01953125 C-140.75697825 100.30283964 -139.03452661 98.58510449 -137.31306458 96.86637878 C-132.79158099 92.35826479 -128.25486841 87.86577668 -123.71514893 83.3760376 C-120.02174898 79.71802236 -116.33951366 76.04888254 -112.65780163 72.37910938 C-108.24838489 67.98453132 -103.83382819 63.59513431 -99.41796875 59.20703125 C-98.58317678 58.37715006 -97.74838482 57.54726887 -96.88829613 56.69223976 C-94.50792396 54.32827445 -92.12409595 51.9678546 -89.73901367 49.60864258 C-89.0462735 48.92016235 -88.35353333 48.23168213 -87.63980103 47.52233887 C-83.70912353 43.64287619 -79.66998171 39.94593349 -75.49180698 36.33474445 C-73.53868462 34.62782187 -71.69000419 32.84906676 -69.87939453 30.99194336 C-69.23157013 30.33113266 -68.58374573 29.67032196 -67.91629028 28.98948669 C-67.24524261 28.30072952 -66.57419495 27.61197235 -65.8828125 26.90234375 C-64.40539967 25.40254964 -62.92752075 23.90321456 -61.44921875 22.40429688 C-59.15843623 20.07647129 -56.87088905 17.74578226 -54.59130859 15.40698242 C-52.36446754 13.12522573 -50.1247603 10.85674659 -47.8828125 8.58984375 C-47.21581329 7.89906235 -46.54881409 7.20828094 -45.86160278 6.49656677 C-32.31838025 -7.11973783 -16.74360119 -10.55176617 0 0 Z M-56.03515625 88.96484375 C-57.40994141 90.34349609 -57.40994141 90.34349609 -58.8125 91.75 C-59.73160156 92.66652344 -60.65070313 93.58304687 -61.59765625 94.52734375 C-63.86427273 96.41062547 -63.86427273 96.41062547 -63.75 97.8125 C-60.12 97.8125 -56.49 97.8125 -52.75 97.8125 C-52.75 94.1825 -52.75 90.5525 -52.75 86.8125 C-54.15187453 86.69822727 -54.15187453 86.69822727 -56.03515625 88.96484375 Z " fill="#FEA000" transform="translate(180.75,326.1875)"/>
<path d="M0 0 C1.56687561 -0.01395813 1.56687561 -0.01395813 3.16540527 -0.02819824 C4.28322388 -0.01180298 5.40104248 0.00459229 6.55273438 0.02148438 C8.28892029 0.02142395 8.28892029 0.02142395 10.06018066 0.0213623 C12.50453122 0.02671784 14.94888131 0.0443017 17.39306641 0.07324219 C21.13302271 0.11508377 24.8711773 0.11431072 28.61132812 0.10742188 C30.98764271 0.11791492 33.36394803 0.13085363 35.74023438 0.14648438 C36.85805298 0.14668579 37.97587158 0.14688721 39.12756348 0.14709473 C40.69443909 0.17096252 40.69443909 0.17096252 42.29296875 0.1953125 C43.66600159 0.20794128 43.66600159 0.20794128 45.06677246 0.2208252 C48.18706664 0.69788337 50.09531072 1.78450064 52.64648438 3.61523438 C54.13105938 6.58438439 53.82759937 9.29341197 53.88113403 12.60798645 C53.89398308 13.33652397 53.90683212 14.0650615 53.92007053 14.81567591 C53.96170345 17.27069971 53.99589779 19.72576605 54.02978516 22.1809082 C54.05732397 23.93708594 54.08505899 25.69326061 54.11297607 27.44943237 C54.35961005 43.58455136 54.49839211 59.72109634 54.60942268 75.85765553 C54.68567287 86.69009567 54.79351138 97.52022836 54.98388672 108.35131836 C55.15016663 117.81259573 55.25422381 127.27226121 55.28665912 136.7349779 C55.30574267 141.73165962 55.35289075 146.72401292 55.4744606 151.71933937 C56.0546348 176.60606496 53.97957619 194.09945567 38.94778061 214.43465233 C35.95685432 218.56836024 33.25117737 222.85903054 30.56689346 227.19628686 C27.85719212 231.5098805 27.85719212 231.5098805 25.64648438 232.61523438 C19.96220065 233.17434425 19.96220065 233.17434425 17.64648438 232.61523438 C13.78592887 229.17226044 11.22264479 225.6020619 8.65039062 221.13476562 C8.29436264 220.5218718 7.93833466 219.90897797 7.57151794 219.2775116 C6.44327836 217.33175052 5.32586347 215.38003419 4.20898438 213.42773438 C3.09322927 211.49477914 1.97527068 209.56311033 0.85716248 207.6315155 C-0.50915618 205.2674248 -1.87389875 202.90303603 -3.20227242 200.5173645 C-4.33617812 198.56018149 -4.33617812 198.56018149 -5.8504467 196.69235229 C-11.71039031 188.61142178 -11.19565604 180.28753603 -11.11401367 170.76049805 C-11.12051562 168.96419211 -11.12958288 167.16789392 -11.14100647 165.37161255 C-11.16398647 160.51844554 -11.14943141 155.66606994 -11.12653708 150.81292892 C-11.10756116 145.72637485 -11.11878808 140.63987184 -11.1254425 135.55329895 C-11.13177198 127.01855959 -11.11356477 118.48413599 -11.08081055 109.94946289 C-11.04326018 100.08349491 -11.04512432 90.21812321 -11.06785172 80.35212344 C-11.0887941 70.85118816 -11.08153446 61.35047322 -11.06153297 51.84954262 C-11.05354853 47.80932633 -11.05553637 43.76929652 -11.06555748 39.72908592 C-11.07610287 34.97555615 -11.06199854 30.22272255 -11.02881432 25.46930313 C-11.02060346 23.72501455 -11.0208954 21.98066222 -11.03029251 20.23637962 C-11.04171049 17.85567368 -11.02235906 15.47713639 -10.99516296 13.09660339 C-11.00563445 12.40594526 -11.01610594 11.71528713 -11.02689475 11.00369996 C-10.9458958 7.2000463 -10.40640006 5.68034299 -7.97464466 2.68649006 C-4.99970645 0.33564903 -3.7357427 -0.00838458 0 0 Z " fill="#000000" transform="translate(354.353515625,255.384765625)"/>
<path d="M0 0 C0 84.48 0 168.96 0 256 C-11.88 256.495 -11.88 256.495 -24 257 C-30.31190319 259.11589944 -30.31190319 259.11589944 -36 262 C-37.33070668 262.67189431 -38.66367019 263.33936026 -40 264 C-40.0912773 232.79725021 -40.16205256 201.59453577 -40.20426132 170.39168414 C-40.20926406 166.70676056 -40.21444136 163.02183725 -40.21972656 159.33691406 C-40.2207758 158.60332131 -40.22182505 157.86972856 -40.22290608 157.11390573 C-40.24030483 145.24025996 -40.27183958 133.36669177 -40.30861118 121.493092 C-40.3460354 109.30700448 -40.36823898 97.12095756 -40.37635398 84.93481493 C-40.3818387 77.41706545 -40.39915303 69.89953525 -40.43166587 62.38185328 C-40.45533653 56.6144073 -40.45781609 50.8471014 -40.45243073 45.07961655 C-40.4535311 42.71572902 -40.4614868 40.35183319 -40.4768219 37.98799515 C-40.49674358 34.75874134 -40.49193048 31.53042324 -40.48101807 28.30114746 C-40.49849512 26.90034164 -40.49849512 26.90034164 -40.51632524 25.47123671 C-40.45029529 18.23461906 -38.64661414 12.98276728 -33.81640625 7.5390625 C-32.70072266 6.59160156 -32.70072266 6.59160156 -31.5625 5.625 C-30.82128906 4.97789063 -30.08007812 4.33078125 -29.31640625 3.6640625 C-20.06677402 -2.98069859 -12.74851834 0 0 0 Z " fill="#7CAEFE" transform="translate(72,40)"/>
<path d="M0 0 C25.25415677 0 25.25415677 0 32.25 6.1875 C32.87390625 6.71730469 33.4978125 7.24710938 34.140625 7.79296875 C39.50701631 14.16273995 40.58277076 20.14555038 40.48101807 28.30114746 C40.48443577 29.31253674 40.48785347 30.32392602 40.49137473 31.36596346 C40.49794173 34.74101254 40.47599629 38.11525907 40.45410156 41.49023438 C40.45297283 43.9150287 40.45360744 46.33982439 40.45587158 48.76461792 C40.45678124 53.97783609 40.44546637 59.19087417 40.42292023 64.40403748 C40.39034411 71.94127692 40.3799875 79.47841965 40.37496826 87.01572186 C40.36622438 99.24588783 40.3396335 111.47594678 40.30175781 123.70605469 C40.2650142 135.58300238 40.23671397 147.45992097 40.21972656 159.33691406 C40.21867567 160.06961319 40.21762477 160.80231231 40.21654204 161.55721444 C40.2113217 165.23313071 40.20626691 168.90904719 40.20129442 172.5849638 C40.15986063 203.05671913 40.08913863 233.52834468 40 264 C39.35933594 263.66226562 38.71867187 263.32453125 38.05859375 262.9765625 C37.19363281 262.53054688 36.32867187 262.08453125 35.4375 261.625 C34.59058594 261.18414062 33.74367188 260.74328125 32.87109375 260.2890625 C21.69680909 255.27203674 13.39564026 256.58241914 0 256 C0 171.52 0 87.04 0 0 Z " fill="#7CAEFE" transform="translate(440,40)"/>
<path d="M0 0 C5.75329481 4.406779 9.43100366 10.89237698 11.25 17.8125 C11.55195464 21.66343047 11.54374883 25.5051786 11.54052734 29.36645508 C11.54724457 30.52330307 11.55396179 31.68015106 11.56088257 32.87205505 C11.5798627 36.69209095 11.58378683 40.51195115 11.5859375 44.33203125 C11.59074014 46.31967211 11.59554641 48.30731301 11.60085833 50.29495257 C11.61711854 56.54340907 11.6220295 62.79180798 11.62060547 69.0402832 C11.6194049 75.46827905 11.64049496 81.89593868 11.6720928 88.3238495 C11.69831871 93.85783924 11.70897012 99.3917196 11.70769465 104.92577094 C11.70718681 108.22425494 11.71463349 111.52237425 11.73405075 114.82081032 C11.75370412 118.50427561 11.74787407 122.18688141 11.73583984 125.87036133 C11.74707886 126.9506662 11.75831787 128.03097107 11.76989746 129.14401245 C11.68643122 139.22684511 8.23506678 147.47497573 1.25 154.8125 C-4.66386918 159.47262892 -10.90042079 162.05024758 -18.49139404 162.08665466 C-19.61268707 162.09662979 -20.7339801 162.10660492 -21.88925171 162.11688232 C-23.10496857 162.117547 -24.32068542 162.11821167 -25.57324219 162.11889648 C-27.51092972 162.13138176 -27.51092972 162.13138176 -29.48776245 162.14411926 C-33.02103256 162.16599905 -36.55421616 162.1748545 -40.08754635 162.17994571 C-42.29913026 162.18359747 -44.5106918 162.18984181 -46.72226715 162.1969471 C-54.44962044 162.22142042 -62.17690682 162.23448858 -69.90429688 162.23803711 C-77.08780819 162.2416692 -84.27089144 162.27154618 -91.45427203 162.31344169 C-97.6371031 162.34822723 -103.81979289 162.36358698 -110.00272107 162.36428314 C-113.68860589 162.36507326 -117.37405434 162.37368786 -121.05983734 162.40228081 C-125.17658791 162.43350456 -129.29232952 162.42436259 -133.40917969 162.41186523 C-135.22060959 162.43411667 -135.22060959 162.43411667 -137.06863403 162.45681763 C-144.60646275 162.39183577 -150.51452493 161.24120711 -156.75 156.8125 C-162.31875039 150.93270082 -165.03195694 145.29558532 -165.1875 137.125 C-165.22746094 135.98675781 -165.26742187 134.84851563 -165.30859375 133.67578125 C-163.97966781 124.48481796 -158.61249545 117.9397663 -152.14916992 111.62817383 C-151.40051163 110.87717911 -150.65185333 110.12618439 -149.88050842 109.35243225 C-147.42563688 106.89595813 -144.95349072 104.45772027 -142.48046875 102.01953125 C-140.75697825 100.30283964 -139.03452661 98.58510449 -137.31306458 96.86637878 C-132.79158099 92.35826479 -128.25486841 87.86577668 -123.71514893 83.3760376 C-120.02174898 79.71802236 -116.33951366 76.04888254 -112.65780163 72.37910938 C-108.24838489 67.98453132 -103.83382819 63.59513431 -99.41796875 59.20703125 C-98.58317678 58.37715006 -97.74838482 57.54726887 -96.88829613 56.69223976 C-94.50792396 54.32827445 -92.12409595 51.9678546 -89.73901367 49.60864258 C-89.0462735 48.92016235 -88.35353333 48.23168213 -87.63980103 47.52233887 C-83.70912353 43.64287619 -79.66998171 39.94593349 -75.49180698 36.33474445 C-73.53868462 34.62782187 -71.69000419 32.84906676 -69.87939453 30.99194336 C-69.23157013 30.33113266 -68.58374573 29.67032196 -67.91629028 28.98948669 C-67.24524261 28.30072952 -66.57419495 27.61197235 -65.8828125 26.90234375 C-64.40539967 25.40254964 -62.92752075 23.90321456 -61.44921875 22.40429688 C-59.15843623 20.07647129 -56.87088905 17.74578226 -54.59130859 15.40698242 C-52.36446754 13.12522573 -50.1247603 10.85674659 -47.8828125 8.58984375 C-47.21581329 7.89906235 -46.54881409 7.20828094 -45.86160278 6.49656677 C-32.31838025 -7.11973783 -16.74360119 -10.55176617 0 0 Z M-34.9445343 18.72615051 C-35.43081446 19.20648843 -35.91709463 19.68682635 -36.41811055 20.18171996 C-38.03258076 21.77896333 -39.63993784 23.38316947 -41.24731445 24.98754883 C-42.4087434 26.13971152 -43.57056304 27.29148051 -44.73274231 28.44288635 C-47.8779177 31.56191788 -51.01648572 34.68751404 -54.15306497 37.81518769 C-56.11374913 39.76999773 -58.07559628 41.72363323 -60.03780174 43.67691612 C-66.1799663 49.79176752 -72.31813859 55.91058462 -78.45052844 62.03523904 C-85.5247424 69.10047934 -92.61186107 76.15242943 -99.71045905 83.19316846 C-105.20225161 88.64174745 -110.68247931 94.10178268 -116.15404481 99.57067317 C-119.42039449 102.83492671 -122.69142327 106.09413785 -125.97454262 109.34153175 C-129.06006414 112.39412281 -132.13098068 115.46068164 -135.19128227 118.53854942 C-136.31602156 119.66483075 -137.44590099 120.78600603 -138.58124542 121.90159607 C-140.13190374 123.42684404 -141.66287395 124.96951757 -143.19038391 126.51789856 C-144.05184178 127.37642331 -144.91329966 128.23494806 -145.80086231 129.11948872 C-148.19015994 132.42064364 -148.58464856 134.77244956 -148.75 138.8125 C-147.16161066 142.38637602 -146.03365642 143.62339572 -142.75 145.8125 C-139.93845285 146.08898554 -139.93845285 146.08898554 -136.76953125 146.0078125 C-135.60615234 146.00136719 -134.44277344 145.99492187 -133.24414062 145.98828125 C-132.02919922 145.97152344 -130.81425781 145.95476562 -129.5625 145.9375 C-128.33595703 145.92847656 -127.10941406 145.91945313 -125.84570312 145.91015625 C-122.81371915 145.88656104 -119.78183527 145.85068967 -116.75 145.8125 C-116.75 140.5325 -116.75 135.2525 -116.75 129.8125 C-111.47 129.8125 -106.19 129.8125 -100.75 129.8125 C-100.75 135.0925 -100.75 140.3725 -100.75 145.8125 C-95.47 145.8125 -90.19 145.8125 -84.75 145.8125 C-84.75 140.5325 -84.75 135.2525 -84.75 129.8125 C-79.47 129.8125 -74.19 129.8125 -68.75 129.8125 C-68.75 135.0925 -68.75 140.3725 -68.75 145.8125 C-63.47 145.8125 -58.19 145.8125 -52.75 145.8125 C-52.75 140.5325 -52.75 135.2525 -52.75 129.8125 C-47.47 129.8125 -42.19 129.8125 -36.75 129.8125 C-36.75 135.0925 -36.75 140.3725 -36.75 145.8125 C-33.54115216 145.89377476 -30.33438239 145.95313141 -27.125 146 C-26.22136719 146.02513672 -25.31773437 146.05027344 -24.38671875 146.07617188 C-18.27957002 146.14303847 -13.8133301 145.60660632 -9.10546875 141.3125 C-5.85792112 137.14173649 -4.6189976 134.37987604 -4.65234375 129.14453125 C-4.65556641 128.25185547 -4.65878906 127.35917969 -4.66210938 126.43945312 C-4.67048828 125.51068359 -4.67886719 124.58191406 -4.6875 123.625 C-4.69426758 122.21444336 -4.69426758 122.21444336 -4.70117188 120.77539062 C-4.71295355 118.45439992 -4.73088886 116.13344193 -4.75 113.8125 C-10.03 113.8125 -15.31 113.8125 -20.75 113.8125 C-20.75 108.5325 -20.75 103.2525 -20.75 97.8125 C-15.47 97.8125 -10.19 97.8125 -4.75 97.8125 C-4.75 92.5325 -4.75 87.2525 -4.75 81.8125 C-10.03 81.8125 -15.31 81.8125 -20.75 81.8125 C-20.75 76.5325 -20.75 71.2525 -20.75 65.8125 C-15.47 65.8125 -10.19 65.8125 -4.75 65.8125 C-4.75 60.5325 -4.75 55.2525 -4.75 49.8125 C-10.03 49.8125 -15.31 49.8125 -20.75 49.8125 C-20.75 44.5325 -20.75 39.2525 -20.75 33.8125 C-15.47 33.8125 -10.19 33.8125 -4.75 33.8125 C-4.15780207 24.76384716 -4.15780207 24.76384716 -6.3125 16.1875 C-10.35951935 12.24425038 -14.03789978 9.64373902 -19.8125 9.3125 C-26.37325807 10.14561214 -30.37471176 14.18781877 -34.9445343 18.72615051 Z " fill="#000000" transform="translate(180.75,326.1875)"/>
<path d="M0 0 C10.63963492 8.34802125 18.20603779 18.3432134 23 31 C23.3196875 31.82628906 23.639375 32.65257812 23.96875 33.50390625 C28.52739318 47.32756961 26.57720547 62.46258835 22 76 C21.65606201 77.06033447 21.65606201 77.06033447 21.30517578 78.14208984 C18.51607424 85.90608391 14.19018601 92.69902862 9.70263672 99.57177734 C8.81249107 100.94840936 7.93821017 102.33542146 7.07958984 103.73193359 C-0.1021253 115.41073792 -0.1021253 115.41073792 -4.87792969 116.89355469 C-7.42900844 116.89805077 -9.5261965 116.55528825 -12 116 C-11.40909853 108.23567218 -10.08227476 100.72237374 -8.53125 93.09765625 C-8.29088013 91.89813828 -8.05051025 90.6986203 -7.80285645 89.4627533 C-7.29743451 86.9453341 -6.78970771 84.42837665 -6.27978516 81.91186523 C-5.4976717 78.0510065 -4.72285859 74.18873657 -3.94921875 70.32617188 C-3.45615228 67.87491485 -2.9626772 65.42373998 -2.46875 62.97265625 C-2.23643677 61.81645279 -2.00412354 60.66024933 -1.76477051 59.4690094 C-1.54784546 58.40037155 -1.33092041 57.3317337 -1.10742188 56.23071289 C-0.91724487 55.29046768 -0.72706787 54.35022247 -0.53112793 53.38148499 C0 51 0 51 1 48 C1.343491 42.66704568 1.343491 42.66704568 -1 38 C-5.07795503 36.73831226 -7.41144556 36.216399 -11.28857422 38.12890625 C-13.76765791 39.81864803 -16.1029508 41.6157795 -18.4375 43.5 C-19.23220703 44.11359375 -20.02691406 44.7271875 -20.84570312 45.359375 C-23.24702292 47.21946974 -25.62342914 49.10843372 -28 51 C-29.69749743 52.32512466 -31.39664211 53.64814266 -33.09765625 54.96875 C-33.84668213 55.55076172 -34.59570801 56.13277344 -35.36743164 56.73242188 C-35.9061792 57.15072266 -36.44492676 57.56902344 -37 58 C-40.05327319 56.5763191 -42.66605604 54.88673962 -45.37109375 52.8828125 C-46.60375977 51.97208984 -46.60375977 51.97208984 -47.86132812 51.04296875 C-48.71146484 50.41003906 -49.56160156 49.77710938 -50.4375 49.125 C-51.28376953 48.49980469 -52.13003906 47.87460938 -53.00195312 47.23046875 C-56.34506407 44.75389635 -59.65390663 42.28999582 -62.84375 39.6171875 C-66.33341485 36.99993886 -68.65854072 37 -73 37 C-75.66666667 38.33333333 -75.66666667 38.33333333 -77 41 C-77.58251619 47.63172283 -75.89850172 53.81203447 -74.4375 60.25 C-73.88983876 62.7352178 -73.34437527 65.22092065 -72.80078125 67.70703125 C-72.65723206 68.36155777 -72.51368286 69.01608429 -72.36578369 69.69044495 C-70.70121517 77.30949011 -69.13751445 84.94870346 -67.59793091 92.59387207 C-67.28390864 94.15002192 -66.96790457 95.70577323 -66.64987183 97.2611084 C-66.20187778 99.45308032 -65.76024793 101.64624213 -65.3203125 103.83984375 C-65.06523926 105.10175537 -64.81016602 106.36366699 -64.54736328 107.66381836 C-64.07705774 110.5303327 -63.88367379 113.10664368 -64 116 C-67.62506113 116.97649963 -70.38640761 117.09219539 -74 116 C-77.64895448 112.41948053 -80.28426111 108.39325124 -82.96972656 104.06152344 C-84.22664533 102.03760619 -85.53214602 100.05389806 -86.8515625 98.0703125 C-98.63629713 79.98033379 -104.91537568 59.86128897 -101.3828125 38.21875 C-97.2918461 22.14451033 -87.29945717 6.74119641 -73 -2 C-49.57768448 -15.15732979 -22.40431957 -16.90150424 0 0 Z " fill="#FCC130" transform="translate(294,188)"/>
<path d="M0 0 C21.12 0 42.24 0 64 0 C64 15.84 64 31.68 64 48 C42.88 48 21.76 48 0 48 C0 32.16 0 16.32 0 0 Z " fill="#F5714F" transform="translate(224,320)"/>
<path d="M0 0 C2.57904354 2.83654427 3.37645149 4.69389569 3.38818359 8.50561523 C3.39764008 9.39010849 3.40709656 10.27460175 3.4168396 11.18589783 C3.41076691 12.13388748 3.40469421 13.08187714 3.3984375 14.05859375 C3.40130768 15.03989761 3.40417786 16.02120148 3.40713501 17.03224182 C3.40917488 19.1058917 3.40365043 21.17956085 3.39111328 23.25317383 C3.37507602 26.42247728 3.39095605 29.59050213 3.41015625 32.75976562 C3.40817347 34.77604448 3.40432907 36.79232253 3.3984375 38.80859375 C3.40754654 40.22754189 3.40754654 40.22754189 3.4168396 41.67515564 C3.36510865 46.5309511 3.324392 50.14985614 0 54 C-2.79074163 54.93024721 -4.52083275 55.13588179 -7.40795898 55.16113281 C-8.7396537 55.17554413 -8.7396537 55.17554413 -10.09825134 55.19024658 C-11.05453934 55.19449646 -12.01082733 55.19874634 -12.99609375 55.203125 C-13.98118423 55.20882507 -14.96627472 55.21452515 -15.98121643 55.22039795 C-18.06502204 55.22984434 -20.14884256 55.2363805 -22.23266602 55.24023438 C-25.42165081 55.24995171 -28.60999428 55.28098346 -31.79882812 55.3125 C-33.82291284 55.31902901 -35.84700216 55.32427988 -37.87109375 55.328125 C-38.82535751 55.3404718 -39.77962128 55.3528186 -40.76280212 55.36553955 C-41.65375076 55.36253845 -42.5446994 55.35953735 -43.46264648 55.35644531 C-44.24413559 55.36009094 -45.02562469 55.36373657 -45.83079529 55.36749268 C-48.62096565 54.8948 -49.96233272 53.9438503 -52 52 C-53.53209813 47.24243214 -53.53209813 47.24243214 -53 44 C-51.74885559 42.13194275 -51.74885559 42.13194275 -50.01879883 40.26928711 C-49.05775742 39.22706497 -49.05775742 39.22706497 -48.07730103 38.16378784 C-44.59068347 34.53200767 -41.07656709 30.93406927 -37.51171875 27.37890625 C-36.33510429 26.2008567 -36.33510429 26.2008567 -35.13471985 24.99900818 C-33.49135024 23.35496283 -31.84673625 21.71216047 -30.20092773 20.07055664 C-27.67379852 17.5488278 -25.15210712 15.02174836 -22.63085938 12.49414062 C-21.02896676 10.89290805 -19.42676437 9.29198529 -17.82421875 7.69140625 C-17.06904465 6.93420792 -16.31387054 6.17700958 -15.53581238 5.39686584 C-14.83781021 4.70201584 -14.13980804 4.00716583 -13.4206543 3.29125977 C-12.80667282 2.67807388 -12.19269135 2.064888 -11.56010437 1.43312073 C-8.13749031 -1.71091197 -4.24704531 -1.38764847 0 0 Z M-16.28515625 30.15234375 C-17.65994141 31.53099609 -17.65994141 31.53099609 -19.0625 32.9375 C-19.98160156 33.85402344 -20.90070313 34.77054687 -21.84765625 35.71484375 C-24.11427273 37.59812547 -24.11427273 37.59812547 -24 39 C-20.37 39 -16.74 39 -13 39 C-13 35.37 -13 31.74 -13 28 C-14.40187453 27.88572727 -14.40187453 27.88572727 -16.28515625 30.15234375 Z " fill="#020100" transform="translate(141,385)"/>
<path d="M0 0 C5.21601372 3.40489785 10.22913327 6.86135507 14.98046875 10.8984375 C17.99523311 12.54285442 19.58680761 12.560072 23 12 C26.01307279 10.27261885 28.67074038 8.17123195 31.375 6 C32.47908203 5.14148438 32.47908203 5.14148438 33.60546875 4.265625 C35.41412162 2.8562851 37.21130071 1.4345203 39 0 C40.10855332 3.32565997 39.88275515 4.56229885 39.19555664 7.93041992 C38.99527359 8.93123093 38.79499054 9.93204193 38.58863831 10.96318054 C38.36473923 12.04138565 38.14084015 13.11959076 37.91015625 14.23046875 C37.68678085 15.33602615 37.46340546 16.44158356 37.23326111 17.5806427 C36.51686696 21.11776758 35.78981386 24.65260598 35.0625 28.1875 C34.57546927 30.58253952 34.08913227 32.97772023 33.60351562 35.37304688 C32.41039292 41.25036752 31.2077051 47.12565925 30 53 C23.4 53 16.8 53 10 53 C8.57216998 45.93489959 7.14809994 38.86905583 5.72753906 31.80249023 C5.24355186 29.39765853 4.7585302 26.99303478 4.27246094 24.58862305 C3.57476346 21.13644438 2.88076584 17.68353973 2.1875 14.23046875 C1.96876221 13.15226364 1.75002441 12.07405853 1.5246582 10.96318054 C1.32445068 9.96236954 1.12424316 8.96155853 0.91796875 7.93041992 C0.74031982 7.04883713 0.5626709 6.16725433 0.37963867 5.25895691 C0 3 0 3 0 0 Z " fill="#FAC030" transform="translate(236,251)"/>
<path d="M0 0 C2.64 0 5.28 0 8 0 C8 34.32 8 68.64 8 104 C5.36 104 2.72 104 0 104 C0 69.68 0 35.36 0 0 Z " fill="#FFC431" transform="translate(384,328)"/>
<path d="M0 0 C2.64 0 5.28 0 8 0 C8 34.32 8 68.64 8 104 C5.36 104 2.72 104 0 104 C0 69.68 0 35.36 0 0 Z " fill="#FFC431" transform="translate(360,328)"/>
<path d="M0 0 C17.82 0 35.64 0 54 0 C51.36 5.28 48.72 10.56 46 16 C33.46 16 20.92 16 8 16 C5.36 10.72 2.72 5.44 0 0 Z " fill="#DF4E2A" transform="translate(229,384)"/>
<path d="M0 0 C10.56 0 21.12 0 32 0 C32 5.28 32 10.56 32 16 C21.44 16 10.88 16 0 16 C0 10.72 0 5.44 0 0 Z " fill="#E8F2FF" transform="translate(360,272)"/>
<path d="M0 0 C3.66771845 1.83385923 5.46834996 3.25062829 8.25 6.125 C8.95640625 6.84945312 9.6628125 7.57390625 10.390625 8.3203125 C11.18726563 9.15175781 11.18726563 9.15175781 12 10 C10.6415798 13.04332765 9.11536976 15.12309151 6.7421875 17.453125 C6.11699219 18.071875 5.49179687 18.690625 4.84765625 19.328125 C4.19667969 19.96234375 3.54570312 20.5965625 2.875 21.25 C2.21628906 21.8996875 1.55757813 22.549375 0.87890625 23.21875 C-0.74296643 24.81711727 -2.3693281 26.41061897 -4 28 C-5.06816445 27.13192399 -6.12918085 26.25505217 -7.1875 25.375 C-8.07501953 24.64410156 -8.07501953 24.64410156 -8.98046875 23.8984375 C-11.54686166 21.48592888 -13.74508093 18.70590288 -16 16 C-10.72 10.72 -5.44 5.44 0 0 Z " fill="#020407" transform="translate(334,142)"/>
<path d="M0 0 C4.43626553 2.02300946 7.38251359 4.97867758 10.8125 8.375 C11.72805664 9.24125 11.72805664 9.24125 12.66210938 10.125 C13.23380859 10.68960938 13.80550781 11.25421875 14.39453125 11.8359375 C14.91893799 12.34688965 15.44334473 12.8578418 15.98364258 13.38427734 C17 15 17 15 16.79199219 17.05029297 C15.62090116 19.93325627 13.67050758 21.61134486 11.4375 23.75 C10.61121094 24.54921875 9.78492188 25.3484375 8.93359375 26.171875 C8.29550781 26.77515625 7.65742188 27.3784375 7 28 C0.96668638 23.01595832 -4.5184171 17.58084697 -10 12 C-8.52278578 8.54798361 -6.56205999 6.35038064 -3.875 3.75 C-3.15054688 3.04359375 -2.42609375 2.3371875 -1.6796875 1.609375 C-1.12539062 1.07828125 -0.57109375 0.5471875 0 0 Z " fill="#020407" transform="translate(176,142)"/>
<path d="M0 0 C7.92 0 15.84 0 24 0 C24 5.28 24 10.56 24 16 C16.08 16 8.16 16 0 16 C0 10.72 0 5.44 0 0 Z " fill="#000000" transform="translate(352,224)"/>
<path d="M0 0 C7.92 0 15.84 0 24 0 C24 5.28 24 10.56 24 16 C16.08 16 8.16 16 0 16 C0 10.72 0 5.44 0 0 Z " fill="#000000" transform="translate(136,224)"/>
<path d="M0 0 C5.28 0 10.56 0 16 0 C16 7.92 16 15.84 16 24 C10.72 24 5.44 24 0 24 C0 16.08 0 8.16 0 0 Z " fill="#000000" transform="translate(248,112)"/>
<path d="M0 0 C10.56 0 21.12 0 32 0 C32 2.64 32 5.28 32 8 C21.44 8 10.88 8 0 8 C0 5.36 0 2.72 0 0 Z " fill="#FFE28F" transform="translate(360,304)"/>
<path d="M0 0 C6.6 0 13.2 0 20 0 C16.0625 6.875 16.0625 6.875 14.82446289 9.03466797 C12.8469314 12.48199884 12.8469314 12.48199884 11 16 C10.34 16 9.68 16 9 16 C7.36485767 13.5472865 5.8518754 11.10780245 4.375 8.5625 C3.95476562 7.85544922 3.53453125 7.14839844 3.1015625 6.41992188 C0 1.15834263 0 1.15834263 0 0 Z " fill="#F6C7AF" transform="translate(366,448)"/>
</svg>
